HIERARCHY
ROOT Hips
{
	OFFSET -3.958830 18.904000 13.208200
	CHANNELS 6 Xposition Yposition Zposition Zrotation Yrotation Xrotation 
	JOINT LHipJoint
	{
		OFFSET 0.000000 0.000000 0.000000
		CHANNELS 3 Zrotation Yrotation Xrotation
		JOINT LeftUpLeg
		{
			OFFSET 1.800000 -1.400000 0.085000
			CHANNELS 3 Zrotation Yrotation Xrotation
			JOINT LeftLeg
			{
				OFFSET 2.215000 -6.000000 0.000000
				CHANNELS 3 Zrotation Yrotation Xrotation
				JOINT LeftFoot
				{
					OFFSET 2.500000 -6.900000 0.000000
					CHANNELS 3 Zrotation Yrotation Xrotation
					JOINT LeftToeBase
					{
						OFFSET 0.200000 -0.500000 1.950000
						CHANNELS 3 Zrotation Yrotation Xrotation
						End Site
						{
							OFFSET 0.000000 0.000000 0.000000
						}
					}
				}
			}
		}
	}
	JOINT RHipJoint
	{
		OFFSET 0.000000 0.000000 0.000000
		CHANNELS 3 Zrotation Yrotation Xrotation
		JOINT RightUpLeg
		{
			OFFSET -1.800000 -1.400000 0.085000
			CHANNELS 3 Zrotation Yrotation Xrotation
			JOINT RightLeg
			{
				OFFSET -2.215000 -6.000000 0.000000
				CHANNELS 3 Zrotation Yrotation Xrotation
				JOINT RightFoot
				{
					OFFSET -2.500000 -6.900000 0.000000
					CHANNELS 3 Zrotation Yrotation Xrotation
					JOINT RightToeBase
					{
						OFFSET -0.200000 -0.500000 1.950000
						CHANNELS 3 Zrotation Yrotation Xrotation
						End Site
						{
							OFFSET 0.000000 0.000000 0.000000
						}
					}
				}
			}
		}
	}
	JOINT LowerBack
	{
		OFFSET 0.000000 0.000000 0.000000
		CHANNELS 3 Zrotation Yrotation Xrotation
		JOINT Spine
		{
			OFFSET -0.087000 1.940000 -0.288900
			CHANNELS 3 Zrotation Yrotation Xrotation
			JOINT Spine1
			{
				OFFSET 0.000000 1.950000 0.060000
				CHANNELS 3 Zrotation Yrotation Xrotation
				JOINT Neck
				{
					OFFSET 0.000000 0.000000 0.000000
					CHANNELS 3 Zrotation Yrotation Xrotation
					JOINT Neck1
					{
						OFFSET 0.000000 1.600000 0.340000
						CHANNELS 3 Zrotation Yrotation Xrotation
						JOINT Head
						{
							OFFSET 0.000000 1.667000 -0.240000
							CHANNELS 3 Zrotation Yrotation Xrotation
							End Site
							{
								OFFSET 0.000000 0.000000 0.000000
							}
						}
					}
				}
				JOINT LeftShoulder
				{
					OFFSET 0.000000 0.000000 0.000000
					CHANNELS 3 Zrotation Yrotation Xrotation
					JOINT LeftArm
					{
						OFFSET 2.700000 1.550000 -0.730000
						CHANNELS 3 Zrotation Yrotation Xrotation
						JOINT LeftForeArm
						{
							OFFSET 5.450000 0.000000 0.000000
							CHANNELS 3 Zrotation Yrotation Xrotation
							JOINT LeftHand
							{
								OFFSET 3.450000 0.000000 0.000000
								CHANNELS 3 Zrotation Yrotation Xrotation
								JOINT LeftHandIndex1
								{
									OFFSET 0.750000 0.000000 0.000000
									CHANNELS 3 Zrotation Yrotation Xrotation
									End Site
									{
										OFFSET 0.000000 0.000000 0.000000
									}
								}
							}
						}
					}
				}
				JOINT RightShoulder
				{
					OFFSET 0.000000 0.000000 0.000000
					CHANNELS 3 Zrotation Yrotation Xrotation
					JOINT RightArm
					{
						OFFSET -2.700000 1.550000 -0.730000
						CHANNELS 3 Zrotation Yrotation Xrotation
						JOINT RightForeArm
						{
							OFFSET -5.450000 0.000000 0.000000
							CHANNELS 3 Zrotation Yrotation Xrotation
							JOINT RightHand
							{
								OFFSET -3.450000 0.000000 0.000000
								CHANNELS 3 Zrotation Yrotation Xrotation
								JOINT RightHandIndex1
								{
									OFFSET -0.750000 0.000000 0.000000
									CHANNELS 3 Zrotation Yrotation Xrotation
									End Site
									{
										OFFSET 0.000000 0.000000 0.000000
									}
								}
							}
						}
					}
				}
			}
		}
	}
}
MOTION
Frames: 4
Frame Time: 0.016667
-1.080960 17.505480 -16.177400 -0.919835 -58.867157 8.921629 -14.859193 15.104222 3.601461 11.791048 -1.504005 -10.300988 -10.155273 10.110296 24.253853 -0.809503 6.430109 2.612300 -0.647050 -1.027620 -0.988580 17.968846 -10.347690 3.750750 -4.885770 2.444883 -18.343311 6.821174 -2.997084 0.194230 0.466308 -2.224330 4.683925 -0.396620 0.802890 -0.676410 -3.241066 -4.958046 -8.703908 17.579247 -4.604038 8.130638 -10.158490 -1.222112 -34.100091 5.792163 -7.854337 -11.441956 -21.594176 4.375080 52.830943 -2.327920 -7.328390 9.364540 -6.022530 28.549532 -1.039244 -27.726324 40.127936 -6.706073 65.559700 -84.417759 -46.040071 -3.360664 0.633105 1.015260 0.311320 -0.805750 0.107630 -4.729905 -15.681467 8.340347 19.531743 -28.123983 -5.144247 -34.742805 36.335493 -2.381814 1.789971 -1.004456 -1.118300 0.916480 0.775940 -0.434860 
-1.243140 17.518330 -16.222490 1.629314 -63.666122 5.983942 -14.941060 14.727039 3.986370 12.365477 -2.417663 -11.941809 -15.531291 13.110767 28.322633 -0.501693 7.654047 2.123604 -0.550280 -0.875470 -0.951250 17.924799 -10.277317 3.624375 -5.288845 2.174351 -17.094503 6.745092 -3.046894 0.174353 0.385912 -2.319535 4.640147 -0.330440 0.766810 -0.658840 -3.272957 -4.797864 -8.857205 15.950498 -4.806653 8.915816 -10.270123 -2.296896 -34.833924 5.902224 -7.807417 -10.913236 -22.164889 6.610328 53.608453 -0.403270 -5.791370 8.178000 -5.439253 30.147855 -1.567552 -24.092132 36.932886 -3.647064 55.209182 -77.162244 -32.027317 -3.796267 1.649090 1.011530 0.285770 -0.741440 0.152570 -4.966202 -17.809634 8.044880 18.531662 -28.893551 -5.045333 -34.537781 40.172782 -3.041328 1.905370 -1.156270 -1.066150 0.894660 0.696400 -0.406860 
-1.376040 17.522370 -16.289790 3.687018 -69.398659 2.952966 -15.050231 14.333148 4.302745 13.375374 -2.757330 -12.402845 -21.088312 15.692827 29.259887 -0.142054 8.526711 1.767750 -0.427190 -0.649190 -0.966360 17.892813 -10.214114 3.400318 -5.099921 2.050094 -16.627639 6.602434 -3.283693 1.886066 0.311338 -2.352291 4.615013 -0.250170 0.729800 -0.596930 -3.573689 -4.538728 -8.736576 16.496695 -5.518337 9.828218 -11.604632 -3.247750 -34.409925 5.286956 -8.414739 -10.518841 -23.907715 9.885562 52.867955 3.495260 -4.297150 6.032630 -5.369687 29.813947 -1.360784 -21.923511 36.274653 -2.952037 51.193108 -68.141376 -23.692787 -4.028280 2.003317 0.972760 0.254110 -0.637960 0.240810 -3.968829 -18.068780 7.456221 19.722322 -30.202850 -5.815457 -38.742267 40.900150 -4.448896 2.020368 -1.207443 -0.946570 0.830770 0.591990 -0.318230 
-1.505580 17.525560 -16.367220 4.007435 -75.738429 1.804251 -15.195974 14.064432 4.515462 14.758804 -2.422988 -12.427452 -25.594750 17.426160 28.063433 -0.063468 9.133518 1.575102 -0.457040 -0.708850 -0.933770 17.818237 -10.141768 3.257571 -3.575907 2.252679 -16.461299 5.970086 -3.464572 3.797494 0.312024 -2.263814 4.650405 -0.258880 0.766470 -0.639380 -3.827962 -4.338679 -8.680638 17.259151 -5.359087 10.860454 -13.020393 -3.230718 -34.223550 5.177826 -8.340879 -10.423509 -24.227574 11.857418 53.208395 4.707760 -2.447990 4.314400 -5.853135 28.590761 -1.075605 -19.243116 37.049041 -2.067343 51.673928 -60.102898 -19.583906 -4.313511 1.888846 1.046870 0.253010 -0.660970 0.189840 -3.352143 -17.536228 7.200479 21.428724 -31.367125 -6.943542 -37.640901 39.986952 -4.133569 1.888693 -1.057001 -1.026600 0.929120 0.657950 -0.379450 
